<svg xmlns="http://www.w3.org/2000/svg" viewBox="0 -246 1889 1075" width="1889" height="1075">
  <path d="M1348 613q0 5-6 7-13 7-80 14t-91 7q-18 0-49-16.5t-28-32.5q-14-46-35-54-5 1-14.5-2t-13.5-3q-17 0-50.5 28T947 604q0 19 22 31 9 9 45.5 20t58.5 14q-4 7-13 10t-16 3q-7 0-19.5-.5t-15.5-.5h-21q28 22 84 13-11 12-22 17t-18 6q-7 1-23.5-.5T984 715q-6 0-14 2 0-1-8.5 2t-19.5 6.5q-11 3.5-16 3.5-42 0-91.5-37T785 615q0-13 4.5-37t4.5-37q0-2-3-29-2 0-11 .5t-13.5 1q-4.5.5-10.5 3t-9 6.5q-21 30-57 60.5T626 613l-133-1q-47 0-69.5-7.5t-25.5-17q-3-9.5-19.5-22T328 545l-31-34-48-16-17-14q-16-14-39-33t-50.5-43.5q-27.5-24.5-50-47t-38-43Q39 294 39 283q0-2 3-2 7 0 64.5 41.5t128.5 83Q306 447 348 447q12 0 12-8 0-17-46-55t-92.5-73.5Q175 275 175 263q0-7 7-7 2 0 58 31t119 62.5q63 31.5 81 31.5 11 0 11-8 0-12-28.5-51.5T394 268q0-5 5-5 6 0 57.5 38.5T530 340q10 0 14.5-6.5t8.5-6.5q10 0 30 9t30 9q5 0 5-4 0-11-38-34.5T542 265q0-7 12-7t34 4.5q22 4.5 33 4.5 16 0 16-7 0-9-11.5-32T614 198q0-6 10-6 5 0 82.5 40.5T811 273q22 0 22-33 0-11-7-44.5t-5-41.5q-2-5-20-64-7-23-25.5-64T751-30q-2-4-10.5-19T730-73q0-4-2.5-14.5T725-104q0-8 8-8 15 0 29 19t28 49.5Q804-13 807-9q5 9 12.5 18.5t16.5 20Q845 40 850 46q0-20-5.5-63T839-83q0-18-6-54.5t-6-54.5q0-10 3.5-32t9.5-22q22 18 40 96.5t33.5 158Q929 88 945 106v-2q-1-21 2.5-61.5T951-15q0-11 1-28t3-40.5q2-23.5 7.5-39.5t12.5-16q11 0 17 20t9.5 46.5Q1005-46 1007-40q-4 28-4 42v36.5l1.5 15 3 13 5 10q5 10 7.5 3.5 15-5 43.5-55t36.5-50q5 0 5 14 0 31-16 79-4 11-42 102t-39 93q7 33 47 33 34 0 115.5-41.5T1272 213q5 0 5 6 0 5-30.5 21.5T1185 279q-31 22-31 40 0 13 20 13 35 0 89.5-28t64.5-28q6 0 6 5 0 9-17 34.5t-17 32.5q0 10 22 10 43 0 65-20 39-17 52-17 17 0 17 10 0 12-56 36t-56 38q0 10 16 14.5t27 4.5q33 0 131.5-40.5T1642 322q12-10 17-10 7 0 7 10 0 22-24.5 43t-54 34.5Q1558 413 1533 429t-25 29q7 16 27 16 32 0 97.5-38t122-76.5Q1811 321 1824 321q4 0 4 7 0 10-22 47t-33 48q-6 6-53 27t-57 27q-3 2-24.5 16t-27.5 18q-6 4-24 15t-27.5 16.5q-9.5 5.5-25 14t-29 14.5q-13.5 6-27.5 11-9 3-43.5 6t-60.5 8.5q-26 5.5-26 16.5z"  transform="matrix(1 0 0 -1 11 533)"/>
</svg>
