<svg xmlns="http://www.w3.org/2000/svg" viewBox="0 -205 976.296 890">
  <path d="M444 700h102q14-3 40-7.5t46.5-9.5q20.5-5 37.5-12 150-62 222-203 19-36 35-93 1-6 1-19t1-19q8-31-2-84-2-7-3-21t-2-18q-13-41-35-82-1-7-5-14Q808-2 670-60q-14-6-31-11t-39.5-9.5Q577-85 565-88h-19q-8-2-49-2-91 0-147 21-7 2-22.5 7T303-53Q181 0 105 122q-6 10-13 29.5T83 176q-38 95-22 161v22q23 84 25 90 32 73 90 129.5T308 667q12 5 89 26 5 2 24 3t23 4zm18-24q-6-4-20-3.5t-22-1.5l-72-20v-5h-15q-2-1-7-5t-8-4h-7q-28-12-80-50-4-4-12-15h-4q0-1 2-5-66-52-101-138-6-15-12-45.5T96 347v-30q0-66 13-103 3-7 5.5-22t6.5-23Q168 60 279-9q4-2 10-3.5t10-3.5q23-14 34-20h13l7-7q16-4 25-5 61-20 116-15 1 0 2.5-1t2.5-2q9 0 27 .5t27 2.5q10 3 47.5 11T657-36q69 28 126 83t86 122q29 67 25.5 147.5T860 456q-3 6-8 18t-9 19q-29 44-63 69-1 1-2 5l-2 5h-5q-5 4-16 15t-17 15q-105 74-276 74zm398-516q-2 0-4-1l-4-2v-2h-4q0-1-1-2.5t-2-2.5h-5q0-1-2-6h-5q-1-1-1.5-2.5T830 139q-1 0-5-1t-5-1q-2-4-2-5h-5q0-1-1-2.5t-2-2.5h-4q-1-1-3-5-3 0-7-2V60q-3-3-9-8t-9-7q-2-2-2-4h-71l-6-5v-5q-1-1-4-2.5t-4-2.5v-6q-1 0-3-1.5t-4-2.5v-5q-3-3-7-5V1q-1-1-3.5-2.5T670-4v-5q-2-1-4-2.5t-3-1.5v-5q-7-5-9-6-2-3-3-8-2-6-11-7-4 3-14 3.5T612-34v3h-14v2h-15v2h-15q-15 5-27 5-2-4-7-6t-6-3q-2-2-9-10.5t-13-14q-6-5.5-12-7.5-5 9-22 22t-22 23q-17-4-53-11h-14v-2h-12v-3h-16v-2h-7v-3q-1 0-4 1.5t-6 1.5q-1 8-7 14h-2v6q-1 1-4 2.5t-4 2.5v5q-1 1-4 2.5T313-1v4q-1 1-5 3v5q-4 2-7 5v4q-1 0-2.5 1.5L296 24q-2 4-2 7h-3q-4 7-4 10h-70q-6 8-10 12h-5q-1 1-2 3.5t-2 3.5h-3v62q-1 1-4 2t-4 1v2h-5q-2 4-2 5h-5q-2 4-2 5h-5q-1 1-3 5-3 0-9 2 0 1-1 2.5t-2 3.5h-6q0 1-1 2.5t-1 2.5q-2 1-6.5 3t-7 4q-2.5 2-3.5 7 3 4 3.5 14t1.5 14h2l12 71q-6 1-21 17.5T109 307q25 23 38 35v15q-4 3-4 13.5V384q-12 36-13 65l5 5h5q1 1 2 2.5t1 2.5q2 0 5.5 1t4.5 1q1 1 2 2.5t1 2.5h4q0 1 1 2.5t2 2.5h5q0 1 2 5 2 0 10 2 0 1 2 5h5v2q1 0 4 1t4 2v62h5q3 3 8.5 9.5t8.5 9.5q2-2 70-2 0 1 1.5 4.5t2.5 6.5q1 0 5 2v5q3 1 7 5v4q7 5 8 5v5q1 1 3.5 2.5t3.5 2.5v5q4 2 8 6v4q1 1 3.5 2.5t3.5 2.5v5q1 1 4 2.5t4 2.5v7h2q2-1 12.5-1t17.5-1v-3l82-12q4 8 19 19.5t20 20.5q7-3 24.5-21t32.5-19v3h17v2h13v3h14v2h17v2h16v3q5 2 13 1.5t8 .5h3v-7q1-1 3.5-2.5t3.5-2.5v-5q3-1 8-5v-4q4-2 5-4v-5q2-1 4-2.5t3-1.5v-5q1-1 4-2.5t4-2.5v-5q1-1 7-5v-4q3-3 7-5v-6h4q0-1 2-5h66v2h3v-2q17-9 20-30t0-49q14-8 22-12 0-3 2-5h5q2-4 2-5h6q1-1 2-2.5t1-2.5h4q1-1 3-5h5q0-1 2-5 3-2 6-2t4-2.5q1-2.5 2-8.5-3-3-3.5-11.5T857 414h-2v-13h-3v-12h-2v-12h-2q-2-4-2-14t-3-14h2l27-28h6v-4q8-6 12-10v-4l-28-25q0-1-1-2.5t-1-2.5h-5v-3l-12-9v-10q3-3 3.5-12.5T848 226q11-39 12-66zM383 567h5q3 5 13 12.5t12 14.5q-8 2-25 4t-26 4q-1-7-9-17-4-2-5-2v-5q-3-3-7-6v-7q-4-2-5-3 0-1-1-3.5t-2-3.5H210V443q-2 0-5-.5t-5-1.5q-2-4-2-5-4 2-5 2l-16-9q2-9 5.5-24.5T187 382q1 1 2.5 1t3.5 1q0 1 1 4t1 4q4 1 7 3.5t8 3.5v-52q-1-1-4-2.5t-4-2.5v-2h-4v-3q-4 2-5 3-4-6-6-7-20-20-29-26v-4q5-4 14.5-12.5T187 278q1-1 6-8 1 1 5 3 1-1 2-4t2-4q2 0 8-2v-54h-3v2q-10 5-12 12-3 1-6 2.5t-4 2.5q-2-8-4.5-24t-3.5-23q1-1 4-1t4-1q0-1 2-5h6v-2q3 0 7 2 2-4 2-5 1-1 4-1t4-1V53h123l4-6 1.5-3q1.5-3-.5-6 1 0 8-5v-4l2-1q2-1 2-2 8-8 10-18 8 0 27.5 3.5T410 18q-8 8-18 15 0 3-2 5h-5l-12 15h59l7-10h3q0-1-1-2.5t-2-2.5q2-2 8-4.5t8-4.5q2-2 11.5-13.5t17.5-18q8-6.5 15-8.5 5 5 16 17t16 18q2 2 7.5 4.5T546 33l15 20h59v-3q-5-2-8-9h-5q-2-5-12-12t-12-16q13-1 45-5 1 4 5 10 2 2 4 2v6q2 1 4 2.5t4 2.5v5q0 1 2 1t2 1q0 1-2 5h2q4 6 5 10h124v111q26 13 35 15-3 16-7 42h-5q-8-14-23-22v62l13 9v3h7l2 2 1 3h5l21 25h3v4q-13 8-27 23-1 3-5 7-1 0-5-2-8 10-13 14h-2v60h2q2-3 8-6.5t8-6.5v-4q2-2 10-8 4 29 7 42-1 1-9.5 6T786 442l-8 4v109H659q0 1-3 4.5t-4 5.5h-3l1 2q1 2 2 2l-24 33q-14-6-47-8v-4l12-7v-5q6-2 12-9v-2q4-2 7-2 0-2 1-4l2-4h2v-2h-59q-4 8-11 15t-16.5 14.5Q521 592 516 597q-2 2-6 7t-7.5 8q-3.5 3-8.5 4-4-6-8-9h-5q-1-1-11-12.5T455 578q-3-1-8-4-3-3-8-9.5t-7-9.5h-57v2q6 4 8 10zm131-95 9 3v2l9 3 4 6h5l3 7h6l3 6h6v3l9 3v-3q-5-4-9-12t-8-18q-4-10-7-15-4-2-5-3-2-2 0-2t2-1v-2l24-4q28-9 41-12l-6-3v-3h-14q-5-2-22.5-5t-24.5-6q3-4 29-42h-9q-4 4-19 10t-23 7q-5-16-8-29h-3l-9-27q-2 2-3 6h-4l-3 15h-3v9h-2q-6 18-9 26-9-2-24-8.5t-24-8.5q3 9 14.5 22.5T453 418q-16 0-49 9h-14v3h-6v3h6q3 3 27 8.5t36 7.5q-2 9-12.5 25T428 502q10-3 24.5-15.5T476 472v3q4 5 4 18.5t2 19.5h2v18h3v4h-3v17l6 3q2 4 2.5 15t4.5 15v-6h3v-21h3v-6h3v-33h3v-20h2q1-4 2-14.5t1-12.5zm193 36q16 5 29 10v-3q-12-9-15-22h3q5-3 27-8-1-1-5-2v-3q-2-1-13-.5t-14-3.5q6-5 12-15h3v-5q-6 1-13.5 4t-13.5 4q-2-13-8-18-2-2-5-3-1 3-2.5 9t-2.5 9q-4 2-10 3-5-6-20-8v3q6 3 13 14h3v5q-24 0-33 7h5q7 7 28 8v3q-11 8-16 22 9-4 28-10l9 28q2-2 3-6 6-4 8-22zm-411 24h5q1-4 3.5-12t3.5-12q7 1 15.5 5t12.5 5q-2-6-7.5-13t-7.5-12h3q4-3 29-8v-2q-5-1-16-2.5t-16-2.5q2-5 7.5-11.5T336 456h-7q-6 6-21 8-1-1-.5-1.5T306 461q-1-4-3-9.5t-2-10.5h-5q0 12-7 20v3h-7q-6-6-21-8 2 5 7.5 12t7.5 10q-25 0-31 7h4v3h10q1 0 1 .5t1 1.5q3 1 7.5 2t7.5 4q-8 5-17 22h5v-3h7q13-7 18-7 1 4 3.5 12t3.5 12zm102-158q-1-4-5.5-15t-8-19.5Q381 331 383 329q4-5 15.5-7.5T413 317v-3q14-4 20-6v-6q-6-2-53-20 2-8 9-22.5t9-25.5h-3q-5 6-20 16t-22 11q0-11-5-37.5t-9-30.5v6l-18 62q-10-2-30-13t-24-14v7q4 3 7.5 7t6.5 9.5q3 5.5 5 9.5 4 2 5 2l3 10h3l3 9q-27 0-56 9-5 1-13.5-1t-10.5-2v3h-12v3q-5 0-18 2v6h18l3 6q4 1 7 .5t7-1.5l4-2v3h18v3l53 7v3q-2 2-14 23-6 4-10 5v6l-6 4-3 9h6q4-4 11-8t17-7.5q10-3.5 14-5.5 2-4 2-6h4v3h3q1 7 3 24 9 28 12 41 2-2 3-5h3v-19h2v-11q1-5 4-16.5t5-16.5q3 2 17 13.5t25 13.5zm267-25q12 2 28 12.5t25 12.5q-2-11-15-26.5T688 323q12-1 36-4.5t35-4.5v-3h3v3h21v-6h15v-6q-10 0-15-3v-3h-18v-3l-21 3q-33-8-56-8l3-9h3v-7q1 0 2.5-1t2.5-2v-6q4-2 7-2v-6h3q7-8 9-18-10 2-26.5 12T665 261q0-11-3-22t-7-23.5q-4-12.5-6-19.5-2 1-3 6-4 5-8 29.5t-6 29.5h-6q-4-7-17.5-16T587 233v4q2 1 21 45l-57 20v6q7 0 57 21-17 38-18 45 9-2 22-12.5t23-12.5q0 9 11 66 1-1 3-6 3-3 9-26.5t7-33.5zM517 210l18 3v2h9v3q16 6 23 9v-6q-6-4-8-6v-5l-9-6v-6l-6-3v-7q0-1-2.5-2t-3.5-3l65-12v-6q-14-2-42-11-4-2-11.5-2.5T538 147q4-4 7-12t5-11l6-3v-6h3q1-3 2.5-9t2.5-9q-10 2-25 14.5T514 127q-6-39-6-69h-6q1-11-1.5-27.5T494 11l-7 47h-3l-6 69q-9-2-14-6v-3h-6l-3-6h-6q-2-4-3-7-12-7-21-8v2q4 4 8.5 15.5T440 129l6 3q1 6 6 19-6 0-32 6t-28 8q-1 1-3 6l63 12q-2 8-13 21t-14 23h3q3-3 7.5-3.5t7.5-2.5v-3h6v-3q2 0 7-1t8-1v-3l9-3q2 8 21 56l3-3q3-3 10.5-22.5T517 210Zm-221-43h5q1-3 3.5-11.5T308 144h3q3 4 25 11v-3q-2-1-10-13h-2q0-1-1-3.5t-2-3.5h3q5-5 26-5v-5q-23 0-29-7 12-10 15-23-6 1-14.5 5t-13.5 5q-1-4-3.5-13T301 75h-5q-1 6-4 14t-3 13q-5-1-14-5t-16-5v3q9 5 17 23h-10q-5 4-21 4v5l28 3 2 2 1 2q-11 8-15 21 5-1 14.5-5.5T289 144q1 3 3.5 11.5T296 167zm398 0q1-1 3.5-2t3.5-1q0-4 1-6t2.5-4.5q1.5-2.5 2.5-6.5 1 0 27 8-2-5-8-13t-7-10h5q7-5 27-5v-5q-4 0-14.5-1.5T721 118q2-6 7-13.5t6-12.5q-12 2-25 10v-2q-7-9-10-25-2 1-3 3h-2v7l-3 7q-3 6-4 10-5-1-13-5t-15-5q2 6 8.5 13.5T675 118q-5 1-16.5 2t-16.5 2v5q17 0 33 5l-3 2q-1 5-6.5 11.5T659 155h6q2-2 11.5-6t10.5-5v3q5 6 7 20z"  transform="matrix(1 0 0 -1 -6.26 545)"/>
</svg>
