<svg xmlns="http://www.w3.org/2000/svg" viewBox="0 -252 804 1095.225" width="804" height="1095.225">
  <path d="M251 188h-3l-3 6 3 1zm178 164q-13 6-13 17 0 4-2 5-4-2-4-18l-13-12q-3-4-6-12.5t-7-13.5q0-2-3.5-9t-2.5-9l-4-4-3-3v-1q1-1 4.5-5.5t6.5-4.5h10q8 0 12.5 5t7 14q2.5 9 4.5 12-1 3-1 9 0 8 9 8-2 6-2 9 0 5 3.5 8t3.5 5zM557 68l-8-3q-2-1-6-5.5t-7-6.5v-7q-4-4-7.5-9.5t-5-9Q522 24 517 21t-12-3q-3 0-15 9v12q1 8 .5 22t-.5 21q-5 8-5 16t-3 10.5q-3 2.5-19 2.5-3 0-16 20h-13q0-5-7-10l7-5v-3q0-3 4-7t3-11q3-2 7-8.5t7-8.5l-1-6 6-7 1-8q9-8 19-34.5T499-9v-6q-1-7 5-18t7-16q5-5 6-12 5-4 13-14.5T542-90l4 9 7-9q15 15 14 21 1 0 4-4 9-9 10-4l3 1q2 0 9-6t8-8h9q0 3 7 10 3 7 0 14l8 3V3q-16 13-14 25-1 4-6.5 8.5T599 45q0 15 13 29-2 0-5 4t-6 4q-3 0-8.5-1t-8.5-1q-6 4-11 4-1 0-4.5-3.5t-7-7.5q-3.5-4-4.5-5ZM429-8q-7 4-7 23 0 7-5 12-3 19-14 30-1 18-11 25-1-1-3-4t-3-5.5q-1-2.5-1-4.5l6-3q-5-5-6.5-13T381 41q3-10 3-23 0-16-12-48t-13-38q-9-6-6-18-2-1-6-5.5t-7-5.5v-8l3-4q4 1 10 0v11q2 2 63 68v6q3 2 7 8t6 8zm227 383 18-80 9-13v-50q-6 5-7-6-1-6 0-9l-9-14 9-10-9-9 8-12q-2-9 8-13V49q-7-6-9-16.5t-.5-30Q675-17 675-18l-6-5 7-4q-2-29 0-87l41-1 6-5q13-2 37.5 1t33.5 3q4-8 11-16.5t12.5-14q5.5-5.5 17-14T849-172l8-1 13-18-2-9q17-34 23-42l-8-6-65 2q-4-5-23.5-2.5T767-251l-17 5-10-6q-53 0-105 6l-10-6q-17 0-30 4l-7-4h-35q-2 5-7.5 5t-6.5-5l-43 4-6-4H187v19h7l7 18 15 5q3 4 9 13.5t10.5 14.5q4.5 5 11 11t13.5 10l-10 6q22 13 19 45l10 9-10 10 10 5-3 13q12 17 8 76 11 13 21 30.5T320.5 65q5.5 14 14 36.5T347 135l-21 21 2 11-7 2q-13-6-26-28l1-6-12-13-2-8-13-11V90l10-6V45l-10-7 10-5-10-4-5-20 6-7 1-19-7-10 6-34-38-33-19 14 1 6-20 32q0 7 2 25.5t2 32q0 13.5-4 25.5 12 13 8 49 5 2 5 12 0 9 29.5 56t39.5 57q-1 13 10.5 42.5T307 300q16 23 14 26 2 18 12 23v13q10 9 33 58l-7 4 1 21q4 5 11.5 18t12.5 18l-6 11h-28l-51-31-5 7-12-9-10 9q-5-4-19.5 12.5T239 507l-16 33q7 26-10 44v51q3-3 4.5 2.5t1.5 9.5q3 13 25.5 41.5T279 723q3 2 12.5 5t16.5 7q7 4 8 8 40 3 74-34v-7l12-18q-4-42 12.5-73t57.5-25l1 4 13 3q2-2 20-8 17-5 48-48v-3q6-8 30.5-29.5T621 464q12-19 8-39 5 0 8-4.5t1-9.5q13-16 18-36z"  transform="matrix(1 0 0 -1 -137 541.225)"/>
</svg>
