<svg xmlns="http://www.w3.org/2000/svg" viewBox="0 -205 1074.511 836" width="1074.511" height="836">
  <path d="M251 676q42-14 58.5-64.5T335 502q9-59 28-81 43 21 100 46 13 11 30.5 31t32.5 39q15 19 36 41.5t40 38q19 15.5 44 28t48.5 12.5q23.5 0 53.5-9l15-61q-39-28-110.5-75.5T559 449q1-7 3-23-5 2-10 5-4 3-8-2l-5-5 66-33q19 6 29 17t18 27.5q8 16.5 19 26.5h79q19 4 43.5 22t41.5 31.5q17 13.5 42 13.5t52-24l-6-58q-21-11-79.5-21.5T758 401l-138-89q5-12 5-15.5t-3-6q-3-2.5-4-6.5 18-10 45.5-10t52.5 6.5q25 6.5 59.5 21.5t55.5 26q21 11 52.5 28.5T923 378l72-82q-2-6-4.5-18t-3.5-17l-181-36q4-27 5-43-3-1-10-2.5t-10-2.5q-9 14-38.5 12T691 178q-32-9-57.5-27T608 116h2q1 1 41.5-3.5T740 101q48-7 64-13 7 12 34.5 25t63.5 19.5q36 6.5 70.5 5.5t57.5-17.5q23-16.5 21-48.5-74-45-238.5-75.5T580-29q-2 3-4 11t-4 11q-6-6-18-20-9 7-127.5-8T266-60q-19 22-22.5 31t.5 43q-37 4-54.5 31.5t-26.5 70q-9 42.5-14 53.5-17 3-19.5 15.5T131 218l-53 15q-5 31 8.5 59.5t42.5 62q29 33.5 36 43.5 12 19 20 43.5t12.5 59.5q4.5 35 6 53t3 59.5Q208 655 208 656q21 9 43 20z"  transform="matrix(1 0 0 -1 -26.649 521)"/>
</svg>
