<svg xmlns="http://www.w3.org/2000/svg" viewBox="0 -205 785.307 754" width="785.307" height="754"><path d="M514 445q2 1 5.5 2.5t13 4q9.5 2.5 11.5-.5 4-2 10.5-8t10.5-8q18-11 19-20 0-16-6-24-12-20-22-23-34-5-39-4-12 2-25 21-14 24-10 36 7 15 32 24zM361 621q-15 0-41-5.5T273 605q-21-5-45.5-12t-28.5-8q-15-4-44-27l-29-22q-8-5-33.5-26T51 479q-12-8-19-22t-12.5-35.5Q14 400 13 398q-9-23 4-129 5-41 24-54 27-19 40-33 36-42 61-58 34-20 84-27 24-1 27.5 9t-1.5 17q-1 4-5 10t-12 15.5q-8 9.5-12 16.5-2 3-6.5 10t-6.5 10q-2 3-5.5 8t-7.5 8q-4 3-10 5-3 1-6 3t-5 4q-2 2-4.5 5.5t-4 5.5q-1.5 2-4 7.5t-3.5 7q-1 1.5-4 8t-4 8.5q-1 3-9 17.5t-10.5 21q-2.5 6.5-5 19T126 336q3 22 25.5 42t42.5 30q18 8 58 3 24-3 36-12 3-1 7 1t9.5 7q5.5 5 8.5 6 12 5 25-4 10-5 26 10 3 3 12.5 0t13.5-8q9-13 35-24 16-5 16-28 0-12 23-34 7-7 24-43 2-4 8-17.5t10.5-20q4.5-6.5 8.5-6.5 7 0 9 2t5 10q4 8 8 9t19-1q28-1 49-28 13-20 7-45-1-6 1-13.5t4-12.5l3-5q15-1 35-3 9 0 13 2t5.5 10q1.5 8 2.5 11 3 9-11 32-3 4-2.5 9t1.5 7q1 2 6 9l4 7q1 10 1.5 11.5t-4 16Q667 280 667 282q-2 6-6.5 13t-6.5 12q-2 5-1 10.5t8.5 11.5q7.5 6 17 12.5T691 350q3 2 3.5 5t-1 8q-1.5 5-3 8t-5.5 9q-4 6-5 9-10 23-18 51-1 5-6 13.5T643.5 473q-7.5 11-14 21t-18 25.5Q600 535 593 545q-23 31-97 53.5T361 621Zm90-464q15 3 20 5 9 4 16-6 3-1 4-1t5 2.5q4 2.5 6 3.5 3 1 3.5 3.5t0 7q-.5 4.5-.5 7.5 1 10-4 32 0 1-1 3.5t-1.5 3.5l-1.5 3-2.5 3q-2.5 3-4 2.5t-5.5 2q-4 2.5-7 .5-20 1-23-26 0-3-1.5-19.5T451 157Zm88 66q-6-3-9-17.5t-1-24.5q1-6 4.5-14t2.5-12q0-3-14-21-7-9 5-29 4-6 13-27 2-4 9-4.5t11 1.5q3 2 7.5 7.5T575 90q3 3 5.5 10.5T584 116l1 8q1 3-3 11.5t-7 10.5q-8 5-5 12 3 5 13 17 5 6 3 27-1 10-17 22-5 4-15 3.5t-15-4.5zm-67-72q-5 0-11-4-1-1-5.5-1.5t-8-1.5q-3.5-1-4.5-4-3-8 8-23 7-13 9-31 2-11 10-11 5 0 19 12 4 3 11 21 1 6 1 25 0 7-1 9t-7 1q-4-1-10.5 3.5T472 151Zm165-18q-13 3-14 4-4 3-8.5-2.5T609 122q0-4 1-20.5t0-21.5q-1-7 5.5-11t13.5-5.5q7-1.5 13-5t4-7.5q-5-10-28-14-10-2-21 17-7 12-16 8-4-2-15.5-4T549 54q-17-6-28 12-7 11-23-6-14-12-24-11-22 2-32 13-20 26-20 49 0 5-1 28.5t-1.5 40q-.5 16.5.5 26.5 4 19 1 27-6 17-7 29-1 8-22 43-5 9-17.5 16.5T353 330q-12 2-30-24-8-11-29 5-27 20-40 26-22 7-30-23-3-12 1.5-32t16.5-29q36-34 80-92 24-30 24-55 1-36 35-79 24-32 100-46 43-8 76 1h8.5l9-4.5q9-4.5 10.5-6.5 9-4 57-4 16 0 20 25 0 2 7 22 3 9 0 34-3 28-3 29 0 13 11 29 4 5 0 19-3 12-17 10-19-3-23-2zM453 249q-5-5-10-3.5t-6 5.5q-1 4 0 7 5 7-1 15-1 2 0 5.5t3 6.5l2 2q-8 6-10 15-2 8-20 27-29 25-38 31t-24 5.5q-15-.5-23-7.5-4-3-9.5-8.5t-9.5-9q-4-3.5-7-3.5-4 0-17 17-6 8-49 6-41-2-49-24-4-11 .5-33t11.5-33q27-39 48-57 6-5 13-12.5t11.5-14q4.5-6.5 9.5-13t6-7.5q12-12 11-18-1-3 4-9.5t8-8.5q7-3 4-15-1-2-.5-6.5t0-8.5q-.5-4-1.5-5-5-6-19-9-12-2-17 5-5 11-3 20 3 15 5 17 6 6-7 23-3 4-15 21.5T237 196q-9 8-55 58-19 19-19 49 0 28 12 54 8 17 44 29 20 6 59-3 13-3 25-19 2-2 4-.5t5.5 6q3.5 4.5 6.5 6.5 13 10 25 10 18 0 34-8 23-12 41-29 23-22 26-34 3-25 12-27 13-6 13-9 1-2-1-7-5-12-16-23z" transform="matrix(1 0 0 -1 40.682 466)"/></svg>