<svg xmlns="http://www.w3.org/2000/svg" viewBox="0 -205 1102 984" width="1102" height="984"><path d="M815 198q4-3 9-10.5t7-9.5q4 1 19 11l1-10 8 6q0 12 11 20-1 5-1 16 7 10 7 24l7 4q15-43 1-67 4-15 0-25l10-1q5 4 17.5 9t19.5 12q2 2 7 8t9.5 10.5q4.5 4.5 9.5 6.5 5 13 21.5 35t21.5 34q12 31 20 73l10-2q-2-8 1-15l-3-8q4-6 4-36l6-15-3-8 2-6q-2-10-8-29.5t-8-29.5q-1-5-7-26.5t-7-31.5l-6-7 1-8q-7-9-3-24-8-8-8.5-29.5T980 38q-4 7-18 15-7-1-14-6t-15.5-13.5Q924 25 921 23 886-2 884-6l-9-2-4-7q-9-3-22-17t-22-17q-24-11-47-37-21-22-42-37-3-2-8.5-9.5T722-143q-2-2-11-7t-11-12l-4-2q-1 7-3 19-5 3-11 3l-11-5q-11 2-17 1-4 30-.5 54t1.5 54q-2 30-13 53-2 2-7.5 4t-9 4.5Q622 26 620 30h-8q-6 6-13 9-3 12-4 14t3 15.5q4 13.5 4 14.5-5 11-15.5 27T573 132l-9 4q-3 5-10 15t-11 18.5q-4 8.5-3 16.5-6 4-21 6t-21 7l-9 1q-19 14-49 17l-4 12q26 18 57 56 6 7 21.5 28.5T541 345q5 23 3 32-1 5-16 31l-7 5-3 9-8.5 8.5-9.5 11q-9.5 11-8 9.5t-8 6.5q-9.5 8-8.5 6.5t-6.5 7.5q-7.5 9-4 9.5 7 8 25.5 13.5T521 498q-16 10-37.5 10.5T437 506q-25-3-39-1-13 8-17 16-9 2-14 8l-6-2q2-18 2-27-4-3-6.5-7t-4.5-9.5q-2-5.5-4-8.5-4-1-20.5-8.5T302 458q-6-10-22-21.5T260 421q0 12-4.5 23.5t-12 25Q236 483 233 491l-7 5q-2 10-10 20.5T191 542l-17 16q-4 4-12.5 14T147 589q-6 7-15 13.5t-17 8.5q-13 23-31 26l-4 7q-19 10-31 24-7 2-13 7l3 5q14-4 48 2 14-6 41-6 6-5 21-8t23-1q17-6 19-6l6 7 6-5h7q6-10 20-15.5t26-3.5q13-7 22-6 9-8 26-14.5t27-5.5l8-7q14 1 46-15.5t50-10.5q-15 23-30 27l-4 9q-7 3-12.5 7t-14 13.5Q366 651 365 652q-5 1-14 7t-15 7q-10 15-46 28.5T246 713q4 0 11.5 3.5T270 720q2 0 15.5-2.5T305 716q11 0 32.5-8t33.5-6l7 10q8-14 22-20l5-8q20-6 66-31 5-3 18-12.5t23.5-15.5q10.5-6 19.5-7l5-6q11-1 23.5-9t20.5-14.5q8-6.5 20-6t25 12.5l15-9q-6-26 19-52.5t52-30.5l5 7q2 13-11.5 27T690 559q-5 16-37 43-1 15-22 29l3 6q22-6 57-33 6-4 18-15.5t22.5-18.5q10.5-7 21.5-9l16-16q16-4 40-21l7 1 2-7q-10-22-14-26l2-10q22-22 49-44l2-8q7-5 17.5-17t16.5-17l4-12 3-14 8.5-8.5L916 351q9.5-10.5 5-11l-8-2q-3 1-13.5 7.5T881 350q2-5 8.5-14t10-17q3.5-8 2.5-16h-3q-6 6-14 9l-4 6q-8 2-18.5 12T845 342l-3 7q-34 18-64 9-11 5-26.5 3t-25.5-8q6-45 24-59l1-8q7 6 16 4 4 2 12.5 8.5T793 308v-10q-3-4-14-12.5T765 268q15-9 15-24 4-3 8-10l3-1q7 10 5 21l7 7q-1 9 6 18-3 8 2 16l4 2q4-14 5-27.5t0-36.5q-1-23-1-28zm33 141q-14 18-25.5 24.5T790 370q-14-1-31.5-5.5T730 359v-18.5l4-16.5q11 0 29.5 4.5T795 332q4-11 10-35l3-1q3 4 4 9 12-5 12-32 0-19 19-43l4 2v16l-.5 7q-.5 7-3 7t-5.5 5q-12 42-13 54l7 5q3 12 3 13 7 1 13 0z"  transform="matrix(1 0 0 -1 14 565)"/></svg>