<svg xmlns="http://www.w3.org/2000/svg" viewBox="0 -218 707.393 1052" width="707.393" height="1052"><path d="M302-2q0-4 3-10 7-9 5-16-4-9-5-9 0-6-4-14-8-10-8-36-1-2-1-7l-1-9-5 8q-1 5-3 7-3 1-5 16-1 8-1.5 14.5T271-38v-5q-1-3-1-12 0-2-.5-6t-.5-5q-2-15 0-29 0-5 .5-14t1.5-14q0-16 2-27 7-37 9-41l3-12q-14 17-29 47-6 13-8 50l-3 18q-1 7-1 26-1 5-1 15l-3-6-1-3q-5-12-7-13-4 1-7 14-2 13-7 71v12l-1 7q-2 33-6 46-2 6-2 15 0 4-2 4-1 0-5-1l-2-1-5-3v-4q0-3 1-5l2-9-8 8q-4 4-8 14-7 19-25 31-46 31-59 60l-4 12q-7 20-2 50l1 6 4-4q7-11 8-12 5-1 14-13l4-8 3-7q1-6 15-12 11-7 29-14l29-12q11-8 25-6 7 2 8 6 2 4 5 6h2q0 2-1.5 4.5T236 190l-2 3q-1 0-2 3 0 5-5 15l-2 10q-7 27-11 35.5T202 271q-2 3-7 9-30 33-65 48-3 2-5.5 3t-3.5 1.5q-1 .5-2 .5-11 0-21 7-9 6-9 11-2 3-9 8-2 1-5.5 4t-4.5 4q-7 2-13 18-5 14-16 31l-7 9q-9 13-10 27v22q-5 56 0 57l5-7q0-8 3-13 2-15 10-32 7-18 23-23 3-1 10-6 1-1 4.5-6t5.5-7v3l-6 26q-1 1-1.5 4t-.5 5l-2 6q-5 3-4 27 1 11 9 37 5 19 3 23-3 5-7 5-8 1-7 20 2 16 5.5 40t4.5 29q2 9 2 16 0 8 5 16 7 19 14 31l4 9 6-56 9-52q1-5 3-12 3-22 14-37 8-13 11-21 2-3 6.5-10t7.5-11q5-8 9.5-20t7-21q2.5-9 2.5-10v-37q0-2-2-14-2-3-2-6l3 3q2 7 8 10l3.5 7 4.5 9q2 1 5 8 0 3 7 14l7 3-3-7q-2-6-4-11-3-6-7-24-2-16-2-25v-13q0-18 6-36 1-1 5-18 3-11 4-12 1-3 4-18 2-11 3-12 0-8 7-15 2-1 6.5-3t6.5-4q15-5 11-15-1-2 1-3l9-9q6-6 8-7 4-1 5.5-2t3-4.5Q279 239 279 231q0-16 3-23 0-2 .5-6.5t.5-7.5q1-4 6-14 6-6 5-16 0-6-2-18.5t-1-16.5q1-12-1-18.5T276 92q-4-5-7-8.5t-4.5-6.5q-1.5-3-2.5-4 0-5-1-6-1-2-1-10 0-12-1-16-1-6-5-10-5-7-3-14 1-4 5-10 2-9 4-14 9 0 13 16 1 5 3 9l3 4q4 3 4 6 0 5 3.5 9t7.5 3q8 0 8-10zm-68 390q0 5-2 7-1 5 1 21 1 9 1 20l3 23q3 9 7 13 2 1 1 16l-2 55v9l3-7q11-15 8-36v-5q0-19 3-33v-10q0-12 4-21 7-6 7-8 8-5 10-18v-7q0-7 4-13v-2l2-3q3-3 5-10 4-9 8-14.5t7-4.5q6 2 9 2 2 1 7.5 3.5t8 3.5q2.5 1 5.5 3t4.5 4q1.5 2 1.5 5 2 7 0 11 0 6 7 22 13 30 20 50l3 10q5 31 11 31 4 0 4-7 2-18 2-27v-15q2-3 2-9 2-14 2-23 0-19-6-26v-27q0-8 1-11 2-10-12-15-10-3-13-8l-4-4q-1-4-5-7-7-10-14-16-6-3-18.5-21.5T305 260l-1-11-3 15q-7 26-15 31l-4 8q0 6-6 14-2 4-4 7.5t-2 4.5q-2 8-11 13-25 6-25 18 0 7 9 8 1 1 2 1l-1 2q0 2-4 6-4 3-6 11zm394 45q5-13-18-31-14-11-33-32-29-27-40-33-10-4-30-22-24-20-31-17h-2q-6 1-14 0l-7-3q-13-2-27-19l-3-6q-4-9-26-20-22-10-21-27v-1q-7-17-12-22-6-11-4-19 0-3 4-11 4-1 7-8 1-9 9-11 7-4 23 5l14 8q10 5 26 18 6 6 10 6h3l2-1q1 0 11 16 6 10 15 22 18 27 23 45l1-10q2-30-9-58l-6-22q-3-23-21-43-9-6-15-15-28-22-34-34l-5-7v9q0 13-3 13-1 0-2-4-8-17-9-33 0-26-7-39-2-6-2-20 1-9 0-22v-5q-2-8-5-23.5T385-71q-3-10-3-25 0-17-8-22-8-7-23-53-1-1-10-19.5T328-212l-6-6 3 9 2 11 2 8 3 12.5q3 12.5 4 18.5 3 24 8 31 0 3 1.5 13t2.5 19l4 23q4 10 1 23-3 14-5 15v-2q-1-2-2-3v-4q-1-7-12-33l-5-4-1 7v14q2 14-1 21-1 3-4 4-4 7-7 18-1 3-2 5t-1 3q0 1-.5 6t-.5 15q-2 30 5 30 6 1 10-8 2-3 3-6t2-4.5q1-1.5 2-3.5 0-2 4-13 7-8 13-16 9 27 9 34 0 2 .5 6.5T362 38q2 25-6 35-5 4-10 14-10 13-12 14-12 10-9 28v8q0 5-1 11t-1 7q-3 12-4 18 0 13 10 32 1 3 3.5 10t3.5 10q0 3 .5 7.5t.5 6.5q0 18 13 28 6 5 14 9.5t9 5.5q6 2 13 8 5 2 14 2l6 1.5 4.5 4q4.5 4 2.5 10.5l2 18q5 53 5 64 0 5 .5 12t.5 10q4 12 0 29-1 10-4 16-4 15 12 37 13 16 26 23 22 19 29 39 5 10 12 29 5 14 8 22 2 3 4 6.5t3 4.5q5 8 5 26 0 14 2 39 1 8 2.5 14t2.5 9q1 3 2 5l2 4q1-4 2-9v-1l1-7q2-9 9-18l3-6q11-20 8-25-4-2-6-2h-1q0-1 1-3t1.5-4.5 1.5-4.5l7-49q1-10-1-36-2-28-2-33v-4l-4 3-4 1q-4 0-5-12-2-10-2-11-5-11 1-21l6-15q9-17 7-23l-5-5q0-2 2-3v-4l7-19q1-1 7-1 3 1 11 1 15 2 21 9 3 4 10 10 15 12 23 29v-12q-2-2 2-7zM205-10q10-44 10-67 0-52 8-69l-8 11-1 3q-8 14-16 45-4 14-8 31 0 8-6 13l-1 5q-3 4-3 10 0 1 .5 5.5t.5 7.5q0 8-2 22-2 15 0 17l3 3h7q7 2 12 0 3-3 3-11 0-3-.5-4.5T202 9V8h-1l3-12zm230 45 1-2q1-2 1-3 2-12 2-29 0-22-9-41l-4-11q-4-16-8-21 0-2-5-19-6-19-13-30-3-3-6-9l-5-9q0 29 6 43 1 1 3 14 2 4 5 13 2 6 5 46v3q1 24 10 59 4 5 11 5 6-2 6-9zm-14 3q3 5 8 4t5-7l2-10q2-10 1-24 0-17-12-51-5-13-9-22t-7-19q-2-9-5-16t-7-13q-4-6-6-10 0 13 6 32 2 3 9 29 1 4 3 21.5t3 27.5q2 39 9 58z" transform="matrix(1 0 0 -1 28.5 566)"/></svg>