<svg xmlns="http://www.w3.org/2000/svg" viewBox="0 -217 1409.408 1094.782" width="1409.408" height="1094.782">
  <path d="m1154 579-7 6 55 123-12 17 67 53q10-13 40-57zm2-23v-1l-7 8 150 146 4-8q12-31 18-39l2-4-134-127 5-8 131 118q10-46 5-56-1-3-113-102l4-6 108 91-1-11-3-64-83-68 3-10 76 58-1-12-6-50-57-41 1-6 54 31-2-12-6-46-37-22 1-8 31 14-2-12-10-47-18-6v-9l16 3-2-8-6-23q108-139 50-278-23-55-69-91.5t-81-44.5q-95-18-171 32-41-29-95-43-121-33-248 35-5 1-10 6l-31-4q11-23-9-33-8-5-21-6.5t-37.5 4q-24.5 5.5-51 20.5T442-135.5Q407-102 372-54L207-178l-63-13q-10-7-44.5-8.5T44-188l-6 5q-1 3 5 5 90 79 107 79 1 0 7-5t12-4q23 3 34 45 2 8 5 11 5 5 11 1 1-1 2-4t1-4q4-6 10-10 15-6 36 10 27 19 58 67 12 22 19 31 9 13 17 13 14 1 27-16 4-5 10.5-14.5T410 7q-17 56 17 88 19 20 43.5 18t43-14.5Q532 86 550 66q0 4 .5 16.5T552 101q16 74 65.5 124T729 276q2 0 5 1t14.5 2q11.5 1 22.5-1 52-6 96-35 9 56 47 94 2 1 29 9 18 6 31 12 15 7 20 13-1 0-4.5 2t-4.5 2q-18-17-58-24-20-3-47-3-5-13-17-29-10-16-26-16-19 1-33 23l-1 1v1h1v-2q-1 0-1 1v1q9 25 0 70l7 5 87 74 256 197 15 11 22 15-10-21-50-105q10-10 25.5-31.5t39-62q23.5-40.5 39-99.5t15.5-122q1-72-15.5-135t-44-106Q1162-25 1141-49.5T1099-91l4-2q85 68 125 194 19 60 25 119 8 43-1 108-16 125-96 228zm99 208-51-41 9-14-46-103 117 116q-3 4-14.5 20.5T1255 764Zm40-73-130-127q6-7 19-23l126 119q-7 13-15 31zm23-70-118-106q8-14 11-21 93 80 110 96 0 11-3 31zm-93-154q6-13 13-32l77 63 3 48zm23-63q2-5 7-23l49 35 4 35zm-130 152v-1h1zm-5-13q7-7 5.5-12.5t-8.5-7.5q-6-2-12.5 5t.5 17q0 1 2 5l1-2 50 102-178-138 21-2q28 24 60 19 0 12 32 50l39 44q5 6 11 6l-50-73q-9-11-4-28t21-15q10 2 14.5 8t4 12q-.5 6-2.5 8-3 2-6 2zm153-215 26 17 3 26-33-21q0-4 2-11t2-11zm3-34q0-4 .5-12.5t.5-11.5l7 2 5 28zm-119 134q-13 32-41 54 9-11 8.5-36t-15.5-43q42-66 45-135 14 42 14 86 1 46-11 74zm117-203-1-7v-7h-3zm0 0 4 12h-3v-10ZM954 499l-33-26q26-8 51-1 1 8 11 25zm140-108q-8-8-20-15-25-15-48-12 17-31 30-72 16 7 43 9h28q-9 50-33 90zm-23 114q-17 11-42 5-41-11-43-47-1-17 10-23 10-4 17 2 4 3 4 8-6-3-9.5.5t-3 9q.5 5.5 4.5 8.5 18 7 21-15l-1 2q2-15-10-26-13-7-29-1-16 7-18 31-4-2-7-3l-38-21-36-16q-1 1 0 2.5t8.5 7.5q7.5 6 22.5 15l14 14q-14 0-27 6l-52-40q1-15-6.5-35.5T820 358q0-10-1-15 33 20 41 13 5-4-1-15-8 0-16-2-15-4-24-12 8-10 18-11 17-1 27 33 3 9 5 10.5t12 2.5q2 1 7.5 2t8.5 1q24 2 44 10 17 7 28 13l16 6q3 0 11-4 45-15 66-2 41 26 39 65-3 33-30 52zm57-221q-14 0-27-1-24-2-41-7 8-28 8-61 38 11 61 6 0 1 2 11.5t2 18.5q-1 15-5 33zm-44-368q15 12 30 27t39 47.5q24 32.5 40.5 67.5t29 89q12.5 54 11.5 112-1 154-99 279 3-15-7-30-5-8-10-9 30-27 45-63 7-16 12-45t-.5-75q-5.5-46-25.5-87-38-75-45-92 48 14 72 87 3 6 3 10l1 2h-1q27 129-15 205-14 30-39 53-3 2-5 4-4 4 2 4 23 0 53-55 43-84 17-215-6-31-24-59-37-59-101-58-30 0-42 6-10 3-18.5 13.5t1.5 22.5q6 5 10 3.5t5-4.5q4-12-5-13l-3-1q6-9 17-10 51 77-20 224-22-23-67-27h-13q-4 0-10-2-31-33-42-102l1-1q6 4 47 24 32 16 31 18 0 1-1 2l-3 2q-10 9-4 29l1 5q2 6 6 9-11-3-25-15-7-4-13-9.5t-9-9.5l-2-4q-8-12-22-50 0 15 3 29t6 20l3 7q6 8 13 14 4 4 13 10 32 29 56 27 10 0 19-6h1l3-1q18-46 11-93t-33-88q-15-2-15 4 0 4 5 11 24 44 29 71-8-25-36-83v-31l-1 1 1-5 2-1 6-5q2-1 16-10 9-7 30-27 7-9 35.5-31t43.5-23q26 0 34 16 4 8 4 10 2 11-4 21-11 14-20 10 2-6-4.5-10t-11.5 4q-4 6 2.5 11.5T1114 83q11 1 26-14v-1q13-24 2-42-14-25-43-25-17 0-32 9l-32-40q9-20 17-27 12-14 32-27zm-14 283q-2-38-20-69 22 0 32 3l40 72q-27 2-52-6zM818 394q1-9 1-21 23 9 26 41zm172-83q-19 0-24-9-2-2-2-5-1-10 5-18 7-10 7-12 0-6-76-48l14-14q49 44 82 66 2 26-6 40zm128-408q44-8 90 25 63 47 32 168-43-125-122-193zm154 303-3-8-19-82q4-12 8-28.5t7.5-51.5q3.5-35-8.5-67t-39-53q-98-71-179 12-31 32-66 160-6 3-21 9l-37-50q4-36 16-69t26-54.5q14-21.5 27-38t22-23.5l9-7q63-49 161-32 31 5 72.5 38.5T1313-51q49 117-41 257zM1013 51q-1 0-1 1t-1 2h-1l-1 1-5 4 2-8q0-3 4-14l8 9zm26-23q-2 1-5 4l-5 5-14-19q6-17 12-31l23 31q-5 4-11 10zm-88 103 1 22q7 12 17 30 15 33 23 63-16-10-38-26.5T897.5 168Q863 133 840 98h-1v-1l-8-9q-8-9-20.5-24T784 36q-56-58-94-69 32-26 80-34 22 13 83 82t98 116zM797-71l5 1 12 3 74 99q-15-20-32-38-35-45-59-65ZM908 8q-1 5-2.5 13.5T904 31l-69-94q47 8 84 31-7 20-11 40zM741 184q-30-2-63-31.5T643 80q-2-56 30-91 24 2 63 31.5t62 53Q821 97 828 105q14 22 18 26-53 56-105 53zM951-95q-61-32-121-34.5T728-113q-42 19-68 53-3 4-7 10t-13 26.5q-9 20.5-13.5 41T624 66q2 28 14 54 37 74 103 78 57 3 113-57 18 23 46 48-3 1-4 5l-13 13-18-7-3 10v2q1 2 1.5 5t.5 6q-45 29-93 35-23 2-29 1l-10-1q-67-6-110-52T565 99q-10-47 1-100t39-96q17-20 33-35t24-20l7-5q48-26 96-35t76.5-6.5Q870-196 907-187q59 12 89 39-25 20-45 53zm-24 49q-71-44-133-41-68 2-116 40-18 15-31 42 9-29 24-47 41-53 127-62 79-5 146 30-11 20-17 38zM476 26q-2 0-3-2 1-1 3-1 3 3 0 3zm131-176 25 2q-14 12-18 16-2 2-6 8l-20 3q9-17 19-29zm-56 64q-7 15-11 34-3 11-8 32l-3 25q-1 11-5 23-7 17-13 24-10 12-25 13h-3q-11-4-14-6.5t-6.5-7Q459 47 456 39t1-17q4-10 12-11 4 0 5 1-6 0-8.5 5.5T465 28q2 5 7 5 7 1 10.5-2.5t3-8.5q-.5-5-.5-6-3-13-11-13-5-1-11 0-10 2-14 14-11 30 12 49 9 8 22 8 9 2 19-3 19-7 34-38 4-10 6-24 2-18 4-26 8-38 26-77l13-2q-43 69-40 141-14 22-32 34.5T484 94l-10 2q-20 2-35-12-13-12-16-32t3-39.5Q432-7 437-19t9-19q5-6 33-35t31-31q5-11 6.5-18.5t1-9q-.5-1.5-1.5-1.5-3-3-40 35-68 72-111 130-43-69-90-103-29-20-48-13-8 3-13 10-2-9-6-19-16-27-36-30-9-2-24 6l-4 2q-1-1-19-15-29-26-45-39 48-12 120 35 57 38 112 99 8 8 20 22.5T348 6q1 1 4.5 5.5T360 20q4 4 5 4 8 0 10-8 0-4-22.5-30.5t-64-65.5Q247-119 207-145q-81-53-142-31l-6-4q20-6 46.5-4.5T138-179q8 5 27 9.5t30 3.5l86 61q82 57 92 69 2 0 7-6 35-44 67.5-76t56-47.5q23.5-15.5 44.5-23t34-7q13 .5 22 6.5 10 8 7 15-42 46-60 88z"  transform="matrix(1 0 0 -1 12.143 611)"/>
</svg>
