<svg xmlns="http://www.w3.org/2000/svg" viewBox="0 -205 1928 543.595" width="1928" height="543.595"><path d="m908 402 35 13q-43 0-78.5-4t-49.5-8l-13-4q-40-12-81-35t-57-41q-2-2 6.5-14.5T694 281q15-15 27-23 2-1 15.5-10t20-13.5Q763 230 778 222t26.5-12.5q11.5-4.5 27-9T861 195q59-8 93-9zm239-28q-4 6-11.5 10t-12.5 5h-5q-19 1-118-25l-25-179q48 2 92.5 13t65.5 20l19 9q46 24 90.5 57t52.5 45l9 10-68 49 70-20q44-15 250-128l13 13q-39 24-86.5 48.5T1407 338l-28 13q-66 34-141 59t-112 31q-10 1-48.5 8t-57 9q-18.5 2-51 5t-60.5 2.5q-28-.5-56-3.5-7-1-39-4.5t-42.5-5.5q-10.5-2-39.5-7t-47-10.5q-18-5.5-47-14T579.5 400Q550 388 516 373q-73-34-129.5-69.5t-78-54Q287 231 284 224q-8-24 6-29t27-11q-19 2-35.5 6.5T258 197l-7 3q-48 23-94 58-17 15-66 50l-17-3q2 4 2 9t-2 10l-1 3q-6 13-10 23l51-23 126 98q20 16 53 36.5t39 22.5q5 3 61-5-6-8-8-16.5t-1-13.5l1-5q6-16 14-33-11 0-19 1.5t-11 3.5l-2 1q-9 7-25 29-49-32-77.5-52T231 369l-3-4q-2-8 19.5-25.5T282 321q8-1 39.5 15t73.5 39.5q42 23.5 56 30.5 117 58 173 74 43 14 119.5 31.5T868 528q165 0 296-31 95-24 150.5-39.5t163.5-56q108-40.5 221-95.5l43 24q-18 23-33.5 38.5L1688 389l-7 4q-5 3-11 8-6 4-10 2l-1-1q-9-4-36-25l-2 22q13 15 26 26.5t20 14.5l6 4q17 8 24 9.5t17-3.5q5-2 56-46.5t58-45.5q17-4 26 0 10 3 21 6l16-16-7-8q0 3-3 4t-5 0h-3q-7-1-65.5-28t-87.5-42q-77-38-110-62l-68-50-37 6-1 8 29 20q9 13 9 18 0 15-82 60-44 24-76 32-27 8-44-6-3-2-42.5-37.5T1246 216q-19-17-69.5-50t-83.5-45Q959 69 856 91q-120 26-183 61-40 23-93 72-14 15-44 60l-56 16q15 13 31.5 25t25.5 17l9 5q57 31 150 59 129 36 185 38 119 5 161-4 82-19 94-33 11-16 11-33z"  transform="matrix(1 0 0 -1 -13 373.054)"/></svg>