<svg xmlns="http://www.w3.org/2000/svg" viewBox="0 -205 2111.756 865.238" width="2111.756" height="865.238">
  <path d="M61 469q45-22 135-32.5t193-2Q492 443 552 476q25 13 56.5 33.5T666 548q26 18 59 39t59 35q26 14 59.5 25t59.5 11q26 0 59-7 47-14 71.5-43t26.5-61q2-32-4.5-59t-19.5-44q-41 8-112 5.5T798 421q-3-1-31.5-15.5t-53-25Q689 370 650 354t-74-24q-35-8-74-14t-76 .5q-37 6.5-66 22.5 35-23 82-30t80.5-6q33.5 1 89.5 15t69.5 18.5Q695 341 741 357q66 24 95 33t68 16.5q39 7.5 65 1.5t54-22q6-3 12.5-17.5t10.5-36q4-21.5 2.5-47t-15-52.5q-13.5-27-36.5-51t-68-43q-45-19-106-28-224-33-432 63T61 469Zm1803-157q-2 0-2-1h-2q-1 0-2-1-47-14-34-60 8-26 37.5-29.5T1897 231q3 5 3.5 21t13.5 23q54-1 85.5-40.5T2029 132q-1-58-37-97.5T1897-18q-152-35-356 112-86 60-172 156-9 10-53.5 63.5T1242 390q-133 114-351 97-13-1-18.5-12t0-21.5Q878 443 891 444q172 13 302-70 31-19 60.5-51t62.5-73q33-41 52-62 206-217 416-249 97-15 175 19.5T2063 82q20 69-1 128t-75 88.5q-54 29.5-123 13.5zm-357-190q-39 23-58 63t-22.5 88q-3.5 48-1 101t3.5 103.5q1 50.5-7.5 94t-37.5 76q-29 32.5-80 44.5-13 10-28.5 7t-25.5-18q-10-18 3.5-35.5T1280 631q4 1 12 8.5t17 5.5q49-19 67.5-73.5T1394 448q-1-69-1.5-138.5t20.5-132q21-62.5 73-92.5 11-6 21.5.5t10 18Q1517 115 1507 122Zm215 495q-8 38-49 27-77 4-141.5-53T1471 457q0-13 11.5-18.5t22.5-.5q11 5 9 19-3 55 40.5 97t101.5 47q8-1 13.5-10.5t9.5-11.5q11-7 29.5 5.5T1722 617z"  transform="matrix(1 0 0 -1 -11 544.692)"/>
</svg>
