<svg xmlns="http://www.w3.org/2000/svg" viewBox="0 -205 1112.193 910.908" width="1112.193" height="910.908"><path d="M607 684q82-20 120-36 27-11 56-27 2-1 7.5-4.5t9.5-6.5q4-3 4-5l1-1q2 0 2-1 5-2 7-3 18-11 21-18l1-1 2-2h2q0-1 22-19.5t24-21.5q11-5 21.5-13t20-19.5q9.5-11.5 15-19t16.5-24q11-16.5 15-21.5 18-29 26-43 23-39 19-46-35-14-90-23-26-5-30-6h-9q-9 2-12-1-1 2-13-1.5t-15-4.5q-2 0-10.5-2.5t-14-3.5q-5.5-1-8.5 1l-10 20-27 52q-8 16-16 29-8 15-16 24-11 0-23-8-1-1-3.5-2.5t-3-2.5l-1-2-.5-3q-.5-3 1-5 4-19 7-32 2-5 5.5-18t5.5-20q5-17 7-53 0-1-1-17.5t-.5-28.5q.5-12 2.5-13 15-6 26-11t22-17q11-12 9-24 0-16-33-35-31-19-32-5-5-4-7-15t-3-26.5Q725 82 725 79q-10-67-23-101-9-25-33-56l-25-33q-5-7-10-2-2 2-4 2-3 3 2.5 32t9.5 38q8 24 2 68-4 25-6 73-2 25-13 33-12 9-29 14-87 32-136-7-9-7-24-25-2-27-2-39-1-12 4-79v-16q2-3 7-35 5-29 7-54-2-3-34 32t-38 43q-32 45-54 106-3 7-12 53v6l-.5 5q-.5 5-2.5 2.5t-6 1.5l-27 11q-10 5-15.5 7.5t-11 9Q246 175 246 182q1 11 11.5 19.5T270 213q5 0 18.5 6t19.5 6q2 2 .5 17t-1.5 17q0 30-1 45 0 2 1 6.5t2.5 10.5q1.5 6 1.5 8 2 10 2 17 2 27 4 41 0 3 2 9.5t2.5 11q.5 4.5-1.5 9t-6 6.5q-10 6-15 8-2 1-4.5 3t-4 3q-1.5 1-3.5 1t-3.5-1.5Q282 435 280 432q-12-20-20-31l-5-6q-1-2-4-7t-4-7l-3-5q-18-33-23-32-12 4-18 7-10 3-69 24-13 4-87 29-11 4-36 13-3 1-3.5 3.5t1.5 6l4 7 5.5 7q5.5 7 4.5 5.5 43 66 55 78 16 16 39.5 32t35.5 23q12 7 48 25l40 20q188 97 351 63zM467 334v1q3 17-6 26l-4 3-10 3q-28 5-34-5-12-9-10-24 0-17 5-21 12-5 24-5h1q9 0 18 3 15 7 16 19zm134 15v-2q-3-8-1-14 0-3 3-9l3-6q3-7 19-12h1q7-3 14 0 2 1 4.5 4.5t3.5 4.5q1 2 4.5 11.5t3 12Q655 341 652 349q-9 13-20 18-6 2-20-6l-2-2q-3-2-5.5-5t-3.5-5z"  transform="matrix(1 0 0 -1 42.6 540.824)"/></svg>