<svg xmlns="http://www.w3.org/2000/svg" viewBox="0 -205 1073 854" width="1073" height="854"><path d="M881 713q4 0 5-1t2.5-3 2.5-3l9-16q3-5 9-13 2-4 4-5 0-1 2.5-3t2.5-3q3-5 7-15.5t6-14.5q1-2 3-6.5t3-6.5q1-2 2.5-7t2.5-7l3-6q9-22 10-23 0-3 2-6 0-1 1-2v-2l3-3 2-2q1-2 7-19 1-3 1-9.5t1-9.5l9-37q0-6 1-6l1-2q0-1 1-1-1-1 0-1 0-1 .5-3t.5-3q0-2 1-5.5t2-5.5q0-5 2-13 2-9 8-30 0-2 1.5-9.5t2.5-11.5q1-5 4-16.5t4-17.5q1-8 7-23 0-1 3-5.5t3-7.5h1q0-1 1-3.5t2-3.5q2-8 2-15-2-1-2-8-1-1-1-6-3-15-3-18 0-1 .5-2.5t.5-2.5v-13q2-11 0-21v-11l-1-2q-1-2 0-3 1-5 3.5-12.5l3.5-10.5v-10q0-1-.5-4t-.5-4q0-3 .5-8.5t.5-7.5q1-4 1-13 1-2 1-10 0 1 1 1v-8q1-1 1-4 0 1 1 1v-8q-1 0-1-2-1-1-1-16v-6q-1-2-1-5t-1-4q-3-5-4-8 0-1 .5-4t.5-4q-2-4-2-5-1-1-1-6l-2-2q-3-3-9-7l-1-1q0-1-1-2l-10-3q-5 0-7-1-4-1-11-4.5T974 37q-3-1-7-2l-8-2q-1 0-5-1.5t-6-1.5q-2-1-6-2t-6-2q-5-1-15-6-2-1-6-2.5t-7-2.5q-3-1-6-1-9-3-55-13-3-1-10.5-3T825-4q-5-2-19-4-6-2-8-3-23-2-35-4h-26q-2-1-7-1t-8-1q-2-1-6-2t-6-3q-2 0-8.5 2t-9.5 1q-3 0-7-3.5t-6-3.5h-8q-1 0-4 .5t-5.5.5q-2.5 0-5-1t-5-1.5Q649-28 646-28q-5 0-7 1-6 2-7 2-3 1-7.5-2t-7.5-3q-1 0-11 5h-10q-5 0-11-4l-12-6q-12-6-16-6-9 0-15 3l-13 6h-11q-12 0-18 1-2 0-6.5 2.5T486-26q-4 0-7-3-8-2-11-2t-7.5 2.5T453-26q-3 0-5.5-.5T443-28q-2-1-4-1-3 0-7 2t-6 2q-3 1-9-1h-8q-2 0-6 1.5t-6 1.5q-4 1-12 1-2 1-4 1.5t-4 1.5h-32q-5 0-13 2t-11 2q-10 2-17 2-3 1-9.5 2T285-9l-36 3h-9q-14 2-25 4-12 4-21 4-1 0-4.5.5T184 3q-5 0-15 2-2 0-10.5.5T146 7q-4 2-10 2-7 1-16 6l-1 1v-1l-1 1h-1v1q-4 0-4 3l-3 3-1 1q-2 0-7 2 0 1-2 2l-2 1h-3.5L92 30l-2 2-1 2q-1 1-2 1-3 1-3 2-1 1-2 3t-2 3l-1 4q-1 1-1 4h-1q-2 2-2 3v26q-1 2-1 5 0 2-2 8-1 3-1 10v12-1q1 1 1 4t1 5q0 3 1 4-1 0-1 1h1v1h1v4q0 6-2 17v4q0 2-1.5 6t-1.5 7v4l2 2h-1l1 1q2 12 4 31 0 2-1 7t-1 8q0 30-4 43l-3 9q-4 13-5 17 0 2 1 2v1q1 0 2 1h-2q3 3 4 7v1l3 3h-1l2 2 1 3q1 3 1 4l1 2 1 1q-1 0-1 1 1 1 1 4l1 1q1 0 1 1h-1l1 1v1h1q-1 3 3 11v6q1 1 1.5 4.5t.5 4.5l3 16q6 27 8 40 1 7 5 23 2 13 10.5 38t9.5 30q20 70 29 104l10 20q4 8 5 12 3 3 7 9t7 9q3 6 8 12 3 2 6 5h3l1 1q0 1 1 1v-1q0 1 1 1l3 1h1v1q1-1 1 0 1 1 1 0 0 1 1 1v-1h1v2q1-1 1 0h1q2-2 2-3-1-3-5-9l-5-11q-11-28-19-53-6-17-6-19-5-20-14-48-1-2-2.5-5.5T155 520q-1-3-1-6-2-6-8-43-7-49-10-60-3-17-7-29v-6q0-1-.5-4t-1.5-4q0-3-1-7.5t-1-6.5q0-3-1-8.5t-1-8.5q0-4-1-6v-24q1-2 3-5.5t2-5.5q0-1 1-6t2-7q0-1 2-5.5t2-6.5q-3-2-13-15-1-2-5.5-9t-6.5-11q-3-6-6-23-2-10-2-16-1-2-1-8 3-2 3-12 2-5 5-15 2-6 2-10 1-1 1-6 6-10 12-16l3-2 3-2 10-5q3-1 8.5-4t6.5-4q10-3 20-5 2-1 6-2 6-2 10-2h6q1 0 2.5.5t2.5.5q4 0 9.5-1.5t8.5-1.5q2 0 4-1t4-1q2 0 8.5-1t8.5-2q1 0 3-.5t4-.5q3-1 4-1h21q3 0 6 1 1 0 3 1t3 1q13 11 16 12h8l2 2 3 3q1 1 8 4h9q1 1 3 1 3 2 11 2h1q4 2 6 2l5 5q2 3 12 3 3 0 3-2 2 1 8 1.5t8 2.5q2 1 7 8 2 4 13 4 1 1 1 3t1 3v5q2 10 2 15 0 2-.5 6t-.5 6v5q0 6-4 13-3 10-12 18l-2 2-2 1-3 3q-16 12-16 16 0 1 4 5 1 1 4 2.5t4 2.5q1 1 6 8l4 4q4 6 5 9 6 10 8 16 1 1 2 6 2 8 2 12 1 2 1 7 2 2 3 4 3 5 3 12 0 1 2 14.5t4 21.5q0 1 1 2v2q1 2 4 10 0 1 1.5 3.5t1.5 4.5q1 3 3 7t3 7q3 10 4 14 0 1 1 1-1 3 3 9t4 9q7 11 8 12h1v2q15 18 16 23h-1q2 2 7 18 1 1 2 4.5t2 5.5q5 7 6 8l1 2 1 2q4 8 6 11l8 14 6 12q0 3-2 7-7 13-35 44l-9 9-11 15q-1 1-3 2t-3 2q-1 2-4 5-4 4-7 5l-4 4q-4 2-6 4-2 1-2 2-6 3-10 9-1 1-2 3l-1 2-28 18q-2 2-8 4.5t-9 5.5q-2 2-1 4.5t3 2.5h12q2 0 7.5-.5t7.5-1.5l6-3 6-3 15-9q20-10 31-16 2-2 5-5.5t5-4.5q2-2 6.5-4t5.5-3l23-22q5-5 13-12 5-3 15-11l4-3q2-2 10-8 1 0 2.5-1.5t3.5-2.5q6-2 11 3l3 3 2 2 2 1q2 4 5 4v2-1q3 0 4 3l1 1q1 1 2 0v1h1v2h1l2-1 5 5q4 4 6 8h1v1l8 7v1q1 2 8.5 5.5t8.5 6.5q2 2 2 0v2h1v-1q0 1 1 1 6 6 10 6 0 1 1 1 1 1 3 2h1v1h1v1q0-1 2-1v1l2 2q10 5 11 6v1h1v1q4 2 8 2-1 1 0 1l12 6h1v1q1-1 1 0v1l1-1v1h1q0 1 1 1h3v1q1 1 3 1h1-1v1h2-1 2q1 0 1 .5t1 .5q0 1 1 1 2 0 2 1h2v1q2 0 2 1 1 0 1-1h2v1h1l1 1q2 1 3 0h4v1h2q-1 1 0 1 1-1 1 0h2q0 1 1 1v-1q1 0 1 1h4q2-2 3-2v-2h-1q-2-2-3-2t-3.5-1q-2.5-1-3.5-2v-1q-2 0-12-5t-10-6q-1 0-7-5.5t-7-5.5q-1-1-2.5-3t-2.5-3q-2-2-4.5-4t-3.5-3q-4-4-5-6-1 0-4-2l-1-2-1-2-1-1q-1-1-2-1-8-4-8-11-1 0-1-1-3-1-5-7l-14-14q0-5-2-5-1-1-6.5-6t-6.5-5q-1-1-2.5-4t-2.5-4q-5-7-10-16-1-1-2-4t-2-4h-1q3-7 6-11 1-1 4.5-6.5t3.5-7.5q1-1 2.5-4t3.5-5l1-2v-3h2q0-4 3-7l1-1h-1q0-1 1-1v-1q0-3 2-3 1-1 1-2 2-6 4-10 0-2 1-2l1-1h-1q0-1 1-1 2-4 3-5 7-15 9-19 0-1 2-6t2-7h1q5-7 5-10h1q0-1 1-2.5t1-2.5l2-2 1-3v-1h1q0-1 1-3l1-2q0-1 2-4.5t2-5.5h1v-1q1-3 5-10 1-2 2.5-6.5t2.5-6.5q0-3 1-3v-1l3-6q2-4 2-8 0-1 1-1l1-2-1-1v-1h1l3-9q1-2 3-8l2-4v-6q1-3 2-7t1-8q0-2 2-4 0-2 2-6.5t2-6.5q1-7 3-19 1-1 2.5-4.5t1.5-4.5v-2q1-2 1-3t1-3 1-3q3-6 8-11 1-1 5-2.5t6.5-3.5q2.5-2 2.5-3 0-2-5-8-14-11-24-31-3-3-3-4-4-7-6-17v-7q-2-3 0-7 1-5 7-5 6 2 14-5l3-6q3-6 7-10 2-2 8.5-4t7.5-9l1-2q-1-1 0-1l4-1q4-1 6-2l2-2q3-2 5-2 2-2 9 1 2 0 7.5-3.5t5.5-4.5h1q2 3 11 3 6 0 9-1 1 0 2.5-1t2.5-1q1-1 3-1t3-1q8-2 10-2 2 1 6 1 2 1 8 1h20l2 1h5q3 3 17 5 2 0 6 2 2 0 2 1 5-1 13 3 30 11 66 42 1 2 5 5t5 4q1 1 2.5 2t2.5 1l3 3q0 1 1 1 0 3 5 3 0 1 1 3 0 1 1 3t1 4v13q0 3 1 8.5t2 8.5q0 1 .5 3t.5 3q4 10 2 18 0 2-2 5.5t-2 5.5q-1 2-2 6t-2 5q-1 2-3.5 6.5T984 282q-3 4-7 12-8 8-8 10h-1 2q0 3 1 7t1 7l3 25q1 6-2 30v8l-3 22q-1 4-2.5 11.5T965 426q0 6-1 8-2 14-7 26-2 6-4 9v2q-1 2-1 3-2 2-6 12-1 1-1 4-4 8-5 13-1 2-3.5 8.5T933 522q-1 2-1 5-1 6-3 17 0 3-2 11-1 5-2.5 15.5T922 586q-2 8-7 22-3 10-9 27t-8 25q0 1-.5 3.5t-.5 3.5q0 2-2 6t-2 6q-2 4-2 8-4 6-5 9 0 2-2 9 0 1-1.5 3.5T881 713ZM547 487q-6-8-8-18h-1q0-2-3.5-8t-2.5-9q0-2-1-2v1l-2-5q-2-3-4-9 0-1-1-1 0-1-2-5l-1-1q-1-2-2.5-6t-1.5-5l-3-9q-3-4-3-11-1 0-2-3l-2-6-1-3q0-2-2-4.5t-2-3.5q0-2-1-5t-1-4q-14-47-16-60v-15q0-15 2-19 1-2 8-11 4-4 4-8 5 0 7-5 3-3 7-3v-2q-7-6-10-25v-20q1-3 3-7.5t3-7.5l4-4 6-9q9-10 22-12h3l3-1h13l1 1q1 0 2.5.5t2.5.5q9 3 12 3v1q1 1 3 2t3 2q3 4 11 12l2 2q9 6 11 16 0 3-5 19-2 6-4 10l-1 2q-1 2 0 3.5t1 2.5q1 2 1 3l3 12q3 7 11 23 1 3 7 25l3 9q1 2-.5 4.5T621 318v4l-4 6q-4 7-7 19-1 1-2.5 4l-2.5 5v3q-2 7-4 18l-2 4-1 4q-1 4-3 10l-9 21-1 2q-2 6-3 8-2 4-2 5l-1 2-2 4-2 2-1 3q-2 2-2 3l-5 11q-2 2-2 4-3 5-9 17l-3 6q-3 4-6 4z"  transform="matrix(1 0 0 -1 -12 558)"/></svg>